Coordinates
version=1
nRows=23
nColumns=32
inDegrees=no

Units are S.I. units (second, meters, Newtons, ...)
If the header above contains a line with 'inDegrees', this indicates whether rotational values are in degrees (yes) or radians (no).

endheader
time	pelvis_tilt	pelvis_list	pelvis_rotation	pelvis_tx	pelvis_ty	pelvis_tz	hip_flexion_r	hip_adduction_r	hip_rotation_r	knee_angle_r	ankle_angle_r	subtalar_angle_r	mtp_angle_r	hip_flexion_l	hip_adduction_l	hip_rotation_l	knee_angle_l	ankle_angle_l	subtalar_angle_l	mtp_angle_l	lumbar_extension	lumbar_bending	lumbar_rotation	arm_flex_r	arm_add_r	arm_rot_r	elbow_flex_r	arm_flex_l	arm_add_l	arm_rot_l	elbow_flex_l
4.39	-0.183531	0.0517897	0.0652849	0.853531	1.01006	-0.318336	-0.242102	-0.0552318	-0.150502	1.23797	-1.04288	-0.746669	0.0337271	0.865357	0.0438926	-0.520034	0.296136	-0.388225	0.111701	0.118518	-0.0806934	-0.0850424	0.169369	-0.154196	-0.447386	0.619201	1.9672	-1.10112	-0.205805	0.0483582	0.86867
4.395	-0.173897	0.0509401	0.0773596	0.851971	1.01048	-0.318972	-0.218567	-0.0553251	-0.155448	1.3295	-1.03319	-0.754955	0.0336855	0.836689	0.0487392	-0.550464	0.295781	-0.407525	0.108538	0.118479	-0.101719	-0.0830766	0.151033	-0.174409	-0.432655	0.613409	1.90088	-1.05153	-0.203957	0.0688733	0.846816
4.4	-0.164045	0.0516186	0.0902262	0.850262	1.01065	-0.319624	-0.194556	-0.0573755	-0.161953	1.41901	-1.02076	-0.761282	0.0336439	0.807364	0.0544972	-0.572004	0.299567	-0.426859	0.0996266	0.11844	-0.123098	-0.0824722	0.130343	-0.19144	-0.417818	0.608797	1.8302	-1.00178	-0.202862	0.090569	0.825371
4.405	-0.15366	0.053861	0.103354	0.848474	1.0106	-0.320243	-0.170543	-0.0615963	-0.169189	1.50606	-1.00667	-0.766481	0.0336022	0.776647	0.0608486	-0.583929	0.306356	-0.444547	0.0881577	0.118401	-0.145072	-0.083292	0.107722	-0.205406	-0.403109	0.605373	1.75561	-0.951922	-0.202443	0.113186	0.804656
4.41	-0.142605	0.0576558	0.116292	0.846667	1.01035	-0.320791	-0.146685	-0.0681738	-0.176355	1.59041	-0.991649	-0.771067	0.0335606	0.744254	0.0675412	-0.586078	0.315706	-0.458205	0.076507	0.118362	-0.167707	-0.0855712	0.0836097	-0.216645	-0.388722	0.603044	1.67774	-0.901941	-0.202689	0.136483	0.785089
4.415	-0.13097	0.062915	0.128706	0.844881	1.00989	-0.321244	-0.122759	-0.0772254	-0.182692	1.67202	-0.975962	-0.775224	0.0335189	0.710395	0.0743896	-0.578801	0.327849	-0.464809	0.0660113	0.118323	-0.190847	-0.0892873	0.0584025	-0.22566	-0.374837	0.601679	1.59746	-0.851858	-0.203625	0.160205	0.767204
4.42	-0.119069	0.0694498	0.140397	0.843133	1.00915	-0.321593	-0.0981615	-0.0887491	-0.187489	1.751	-0.959422	-0.778821	0.0334772	0.675711	0.0812692	-0.562853	0.343533	-0.460907	0.0569902	0.118285	-0.214107	-0.0943263	0.0323914	-0.23306	-0.361656	0.601169	1.51588	-0.801747	-0.205254	0.184052	0.751647
4.425	-0.107388	0.076957	0.151301	0.841418	1.0081	-0.321843	-0.0719938	-0.102578	-0.190079	1.82748	-0.94156	-0.781435	0.0334355	0.641133	0.0880976	-0.539313	0.363777	-0.443062	0.0489536	0.118246	-0.236924	-0.100453	0.00573809	-0.239511	-0.349429	0.601465	1.43434	-0.751756	-0.20751	0.207651	0.739146
4.43	-0.0965028	0.0850275	0.161465	0.839721	1.00664	-0.322006	-0.0431981	-0.118362	-0.189841	1.90155	-0.92183	-0.782343	0.0333937	0.607678	0.0948145	-0.509526	0.389544	-0.408556	0.0408853	0.118207	-0.258633	-0.107297	-0.0215207	-0.245705	-0.338464	0.602583	1.35438	-0.702119	-0.210237	0.23054	0.730468
4.435	-0.0869735	0.0931829	0.171013	0.838019	1.00475	-0.322116	-0.0107289	-0.135601	-0.186233	1.9731	-0.899786	-0.780565	0.0333519	0.576232	0.10137	-0.475049	0.421383	-0.356223	0.0315192	0.118168	-0.278568	-0.114369	-0.0494457	-0.252329	-0.329121	0.60458	1.2777	-0.653154	-0.21318	0.252177	0.726354
4.44	-0.0792653	0.10094	0.180114	0.836297	1.00241	-0.322215	0.0262978	-0.15372	-0.178832	2.04181	-0.875195	-0.77495	0.0333101	0.547383	0.107734	-0.437527	0.459155	-0.287135	0.0195422	0.118129	-0.29615	-0.121112	-0.0781612	-0.26005	-0.321782	0.607509	1.20604	-0.605249	-0.216012	0.271952	0.727461
4.445	-0.0736937	0.107894	0.18896	0.834541	0.999648	-0.322357	0.0685006	-0.17218	-0.167401	2.10712	-0.848075	-0.764322	0.0332683	0.521345	0.113914	-0.398505	0.501916	-0.2048	0.00376805	0.11809	-0.310958	-0.126983	-0.107827	-0.269475	-0.316809	0.611365	1.14109	-0.55882	-0.218363	0.289226	0.734289
4.45	-0.0704018	0.113759	0.197759	0.832747	0.996548	-0.322602	0.116171	-0.190535	-0.151955	2.16828	-0.818686	-0.747689	0.0332265	0.497956	0.119923	-0.359247	0.548023	-0.114683	-0.0165613	0.118051	-0.322757	-0.131518	-0.138609	-0.281117	-0.314489	0.616042	1.08428	-0.514269	-0.219878	0.303383	0.747122
4.455	-0.0693508	0.118345	0.206712	0.830922	0.993233	-0.323003	0.169242	-0.208392	-0.132834	2.2244	-0.787489	-0.724472	0.0331846	0.476714	0.125653	-0.320663	0.595405	-0.0230852	-0.0413822	0.118012	-0.33149	-0.134323	-0.170623	-0.295381	-0.314986	0.621306	1.03668	-0.471941	-0.220258	0.313908	0.765991
4.46	-0.0703285	0.121474	0.215983	0.829095	0.989854	-0.323598	0.227296	-0.225304	-0.110755	2.27453	-0.755079	-0.694733	0.0331427	0.456824	0.130724	-0.28334	0.641859	0.0641498	-0.0696003	0.117973	-0.337219	-0.135026	-0.203839	-0.312582	-0.318318	0.626778	0.998891	-0.432093	-0.219302	0.320478	0.79066
4.465	-0.0729843	0.122891	0.225637	0.827321	0.986566	-0.32439	0.289627	-0.240673	-0.0867951	2.31773	-0.722114	-0.659336	0.0331008	0.43729	0.134399	-0.247624	0.685295	0.142568	-0.0991942	0.117934	-0.340052	-0.133243	-0.23799	-0.332953	-0.324344	0.631939	0.971028	-0.394868	-0.216928	0.323032	0.820646
4.47	-0.0768939	0.122254	0.235585	0.825673	0.983505	-0.325352	0.355352	-0.253725	-0.0623094	2.35321	-0.689255	-0.620003	0.0330589	0.417064	0.135636	-0.21372	0.72392	0.209436	-0.127622	0.117896	-0.340083	-0.128611	-0.272526	-0.356663	-0.332767	0.636167	0.95274	-0.360285	-0.213185	0.32181	0.855265
4.475	-0.0816438	0.119178	0.245544	0.82424	0.980773	-0.326416	0.423546	-0.263565	-0.0387607	2.38039	-0.657101	-0.579222	0.0330169	0.395197	0.133248	-0.181835	0.756355	0.263591	-0.152354	0.117857	-0.337346	-0.120863	-0.306625	-0.383809	-0.343161	0.638797	0.943301	-0.328251	-0.208253	0.317343	0.893718
4.48	-0.0869013	0.113334	0.255025	0.823113	0.978429	-0.327487	0.493349	-0.269298	-0.0175167	2.39897	-0.626168	-0.540024	0.032975	0.370935	0.126131	-0.15235	0.781645	0.305021	-0.171298	0.117818	-0.331815	-0.109919	-0.339261	-0.414416	-0.355004	0.639185	0.941727	-0.298602	-0.202424	0.310387	0.935181
4.485	-0.0924518	0.104555	0.263348	0.822377	0.976489	-0.328452	0.56403	-0.270173	0.000355388	2.40897	-0.596901	-0.505674	0.032933	0.343738	0.113497	-0.125982	0.799194	0.334332	-0.183038	0.117779	-0.32344	-0.095965	-0.369307	-0.448437	-0.36773	0.636788	0.946917	-0.271157	-0.196073	0.301829	0.978902
4.49	-0.0982006	0.0929349	0.269702	0.822103	0.97494	-0.329195	0.634987	-0.265726	0.0142361	2.41068	-0.569731	-0.479296	0.0328909	0.313244	0.0950687	-0.103849	0.808671	0.352221	-0.186935	0.11774	-0.312221	-0.0794793	-0.395672	-0.485746	-0.380784	0.631224	0.957778	-0.245772	-0.189603	0.292561	1.02428
4.495	-0.104152	0.0788521	0.27325	0.822341	0.973747	-0.32962	0.705719	-0.255853	0.024001	2.40459	-0.545139	-0.463499	0.0328489	0.279235	0.0711825	-0.0873919	0.809928	0.359062	-0.183129	0.117701	-0.29826	-0.0611932	-0.417443	-0.526142	-0.393678	0.622321	0.973332	-0.22238	-0.183393	0.283373	1.07089
4.5	-0.110382	0.0629344	0.273254	0.823115	0.972866	-0.329658	0.775781	-0.240834	0.0299686	2.39129	-0.523706	-0.460088	0.0328068	0.241617	0.0427917	-0.0781836	0.80294	0.354671	-0.172461	0.117663	-0.281787	-0.0419869	-0.434011	-0.56935	-0.406031	0.610135	0.992757	-0.201006	-0.17776	0.274866	1.11849
